STARTFONT 2.1
FONT jis.jis9400.16
SIZE 16 72 72
FONTBOUNDINGBOX 16 16 0 -2
STARTPROPERTIES 4
FONT_DESCENT 2
FONT_ASCENT 14
DEFAULT_CHAR 3
COPYRIGHT "Copyright (c) 1992 AT&T - All rights reserved."
ENDPROPERTIES
CHARS 74
STARTCHAR ch-3
ENCODING 3
SWIDTH 1000 0
DWIDTH 16 0
BBX 16 16 0 -2
BITMAP
1010
387c
2c10
64fe
4000
fc84
11ef
1084
fce4
118f
9400
d5ff
5048
1c49
70c9
c187
ENDCHAR
STARTCHAR ch-7
ENCODING 7
SWIDTH 1000 0
DWIDTH 16 0
BBX 16 16 0 -2
BITMAP
100e
38f8
2d12
6494
41ff
fc54
1054
10d6
fd93
1000
94fe
d492
50fe
1c92
7092
c0fe
ENDCHAR
STARTCHAR ch-16
ENCODING 16
SWIDTH 1000 0
DWIDTH 16 0
BBX 16 16 0 -2
BITMAP
1010
3810
2dff
6428
40aa
fc44
10fe
1183
fcfe
1082
94fe
d410
5054
1cd6
7193
c030
ENDCHAR
STARTCHAR ch-19
ENCODING 19
SWIDTH 1000 0
DWIDTH 16 0
BBX 16 16 0 -2
BITMAP
2088
7088
5be8
c80f
03ea
fa32
23ea
200a
fbea
204e
a884
a8e4
a38e
388a
609b
c391
ENDCHAR
STARTCHAR ch-20
ENCODING 20
SWIDTH 1000 0
DWIDTH 16 0
BBX 16 16 0 -2
BITMAP
1000
3bff
2c50
65fe
4152
fdfe
1000
10fc
fc84
10fc
9484
d4fc
5020
1dff
7020
c020
ENDCHAR
STARTCHAR ch-24
ENCODING 24
SWIDTH 1000 0
DWIDTH 16 0
BBX 16 16 0 -2
BITMAP
1010
3810
2dff
6444
4028
fdff
1000
10fe
fc92
10fe
9492
d4fe
5010
1cfe
7010
c1ff
ENDCHAR
STARTCHAR ch-25
ENCODING 25
SWIDTH 1000 0
DWIDTH 16 0
BBX 16 16 0 -2
BITMAP
10f2
3915
2cba
646c
40c6
fd83
107c
1000
fefe
1082
9482
d4fe
5044
1c6c
7028
c1ff
ENDCHAR
STARTCHAR ch-26
ENCODING 26
SWIDTH 1000 0
DWIDTH 16 0
BBX 16 16 0 -2
BITMAP
1000
39ff
2c28
64ee
4082
fc82
10ee
1028
fc28
11ff
9410
d418
50aa
1ca3
71a5
c11c
ENDCHAR
STARTCHAR ch-33
ENCODING 33
SWIDTH 1000 0
DWIDTH 16 0
BBX 16 16 0 -2
BITMAP
208a
708b
5be9
c888
07ff
f808
23e8
2229
fbe9
200b
aa2a
ab6e
a144
38ed
6395
c023
ENDCHAR
STARTCHAR ch-43
ENCODING 43
SWIDTH 1000 0
DWIDTH 16 0
BBX 16 16 0 -2
BITMAP
1088
3890
2dff
6710
41fe
fd10
11fe
1110
fdff
1000
95cf
d549
5149
1d79
7101
c103
ENDCHAR
STARTCHAR ch-53
ENCODING 53
SWIDTH 1000 0
DWIDTH 16 0
BBX 16 16 0 -2
BITMAP
208a
73e9
5888
cbff
0008
fbe8
2228
23e9
f809
23eb
a88a
abee
a084
38ed
6395
c023
ENDCHAR
STARTCHAR ch-54
ENCODING 54
SWIDTH 1000 0
DWIDTH 16 0
BBX 16 16 0 -2
BITMAP
1000
38fe
2caa
64aa
40fe
fc00
11ff
1000
fcfe
1082
94fe
d429
506a
1dcc
7066
c0c3
ENDCHAR
STARTCHAR ch-56
ENCODING 56
SWIDTH 1000 0
DWIDTH 16 0
BBX 16 16 0 -2
BITMAP
1000
38fe
2caa
64aa
40fe
fc10
10fe
1010
fdff
1044
9428
d5ff
5010
1cfe
7010
c010
ENDCHAR
STARTCHAR ch-58
ENCODING 58
SWIDTH 1000 0
DWIDTH 16 0
BBX 16 16 0 -2
BITMAP
1092
38d6
2c54
65ff
4101
fd7d
1044
107c
fc00
10fe
9492
d492
50fe
1c92
7092
c0fe
ENDCHAR
STARTCHAR ch-65
ENCODING 65
SWIDTH 1000 0
DWIDTH 16 0
BBX 16 16 0 -2
BITMAP
1010
3945
2d29
6593
4129
fd45
1111
11ff
fc44
1187
9440
d4fe
51a4
1c18
706c
c1c7
ENDCHAR
STARTCHAR ch-68
ENCODING 68
SWIDTH 1000 0
DWIDTH 16 0
BBX 16 16 0 -2
BITMAP
1010
39ff
2c10
64fe
4000
fdff
1001
107d
fc10
10fe
9400
d5ff
5002
1dff
7152
c1c6
ENDCHAR
STARTCHAR ch-81
ENCODING 81
SWIDTH 1000 0
DWIDTH 16 0
BBX 16 16 0 -2
BITMAP
1004
39f4
2d44
654f
41f8
fd10
11f0
114f
fd40
11f0
9400
d4fe
54aa
10aa
1caa
f1ff
ENDCHAR
STARTCHAR ch-82
ENCODING 82
SWIDTH 1000 0
DWIDTH 16 0
BBX 16 16 0 -2
BITMAP
0040
7efe
4980
7e7c
4200
7efe
48aa
7efe
0100
06c0
1838
efe7
0100
3ffc
0920
ffff
ENDCHAR
STARTCHAR ch-83
ENCODING 83
SWIDTH 1000 0
DWIDTH 16 0
BBX 16 16 0 -2
BITMAP
2008
723e
532a
d93e
0008
f87f
2000
273e
f922
213e
a920
a93e
a122
3b3e
6280
c67f
ENDCHAR
STARTCHAR ch-90
ENCODING 90
SWIDTH 1000 0
DWIDTH 16 0
BBX 16 16 0 -2
BITMAP
2084
73df
5884
cbdf
0084
f94a
2201
21fe
f902
21fe
a902
a9fe
a102
39fe
6084
c303
ENDCHAR
STARTCHAR ch-91
ENCODING 91
SWIDTH 1000 0
DWIDTH 16 0
BBX 16 16 0 -2
BITMAP
2010
7010
5bff
ca44
02fe
fa44
23ff
2210
fafe
2292
aafe
aa92
a292
3afe
6444
c183
ENDCHAR
STARTCHAR ch-94
ENCODING 94
SWIDTH 1000 0
DWIDTH 16 0
BBX 16 16 0 -2
BITMAP
2122
7244
5922
c9fc
0154
f924
2154
21fc
f800
21b4
a96c
a9b4
a16c
3925
61b5
c363
ENDCHAR
STARTCHAR ch-96
ENCODING 96
SWIDTH 1000 0
DWIDTH 16 0
BBX 16 16 0 -2
BITMAP
1008
3911
2dbb
64aa
4028
fc38
10aa
11ab
fd39
1010
95ff
d454
5054
1cd6
7193
c010
ENDCHAR
STARTCHAR ch-98
ENCODING 98
SWIDTH 1000 0
DWIDTH 16 0
BBX 16 16 0 -2
BITMAP
1010
381e
2c10
65ff
4121
fdfc
1121
117f
fd52
117e
9552
d57e
5110
1eaa
70a5
c11c
ENDCHAR
STARTCHAR ch-106
ENCODING 106
SWIDTH 1000 0
DWIDTH 16 0
BBX 16 16 0 -2
BITMAP
1010
381e
2c10
65ff
4111
fd7c
1111
117f
fd52
117e
9552
d57e
5100
1efe
70aa
c1ff
ENDCHAR
STARTCHAR ch-112
ENCODING 112
SWIDTH 1000 0
DWIDTH 16 0
BBX 16 16 0 -2
BITMAP
2020
7070
59dc
cf07
00f8
f800
2777
2555
ff77
2000
abfe
aa92
a3fe
3a92
6292
c296
ENDCHAR
STARTCHAR ch-117
ENCODING 117
SWIDTH 1000 0
DWIDTH 16 0
BBX 16 16 0 -2
BITMAP
1044
39ff
2c44
64ee
40aa
fcee
1044
1048
fcfe
1190
94fe
d490
50fe
1c90
7090
c0ff
ENDCHAR
STARTCHAR ch-119
ENCODING 119
SWIDTH 1000 0
DWIDTH 16 0
BBX 16 16 0 -2
BITMAP
21fe
7048
5878
c848
0078
f84e
21f8
2008
fbff
214a
a9ce
a94a
a1ce
394a
63de
c042
ENDCHAR
STARTCHAR ch-124
ENCODING 124
SWIDTH 1000 0
DWIDTH 16 0
BBX 16 16 0 -2
BITMAP
2000
73fe
5a92
cbfe
0000
f90a
261f
22b4
f914
225e
abd4
a954
a11e
3b54
6554
c11f
ENDCHAR
STARTCHAR ch-125
ENCODING 125
SWIDTH 1000 0
DWIDTH 16 0
BBX 16 16 0 -2
BITMAP
2294
73df
5aa4
cfff
014a
f96a
2253
21fe
f902
21fe
a902
a9fe
a102
39fe
6084
c303
ENDCHAR
STARTCHAR ch-126
ENCODING 126
SWIDTH 1000 0
DWIDTH 16 0
BBX 16 16 0 -2
BITMAP
2104
47e8
8010
53ca
2004
4bc9
f81f
23c4
aa55
abd5
2004
07c0
1930
efef
1110
ffff
ENDCHAR
STARTCHAR ch-127
ENCODING 127
SWIDTH 1000 0
DWIDTH 16 0
BBX 16 16 0 -2
BITMAP
94bc
5524
ffa4
2247
7f00
2a7e
4922
6b14
4908
7f37
0000
07c0
1930
efef
1110
ffff
ENDCHAR
STARTCHAR ch-129
ENCODING 129
SWIDTH 1000 0
DWIDTH 16 0
BBX 16 16 0 -2
BITMAP
23de
7252
5bde
ca52
03de
fa52
23ff
2110
fbfe
2110
a9fe
a910
a3ff
3884
6078
c387
ENDCHAR
STARTCHAR ch-375
ENCODING 375
SWIDTH 1000 0
DWIDTH 16 0
BBX 16 16 0 -2
BITMAP
0000
1ffc
1000
1ff8
1000
1ff8
1000
1000
ffff
1104
118c
10d8
1060
1030
1f1c
7007
ENDCHAR
STARTCHAR ch-384
ENCODING 384
SWIDTH 1000 0
DWIDTH 16 0
BBX 16 16 0 -2
BITMAP
0000
7e7e
4242
7e7e
4242
4242
7e7e
4002
4002
4002
4002
4002
4002
4002
4002
400e
ENDCHAR
STARTCHAR ch-386
ENCODING 386
SWIDTH 1000 0
DWIDTH 16 0
BBX 16 16 0 -2
BITMAP
0000
7e7e
4242
7e7e
4242
4242
7e7e
4002
4002
4002
4ff2
4002
4002
4002
4002
400e
ENDCHAR
STARTCHAR ch-387
ENCODING 387
SWIDTH 1000 0
DWIDTH 16 0
BBX 16 16 0 -2
BITMAP
0000
7e7e
4242
7e7e
4242
7e7e
4002
4102
4102
4382
42c2
4662
4c32
581a
4002
400e
ENDCHAR
STARTCHAR ch-391
ENCODING 391
SWIDTH 1000 0
DWIDTH 16 0
BBX 16 16 0 -2
BITMAP
0000
7e7e
4242
7e7e
4242
7e7e
4002
4ff2
4102
4102
41c2
4162
4102
4102
4102
400e
ENDCHAR
STARTCHAR ch-393
ENCODING 393
SWIDTH 1000 0
DWIDTH 16 0
BBX 16 16 0 -2
BITMAP
0000
7e7e
4242
7e7e
4242
7e7e
4002
4082
4082
4ff2
4182
4282
4682
4c82
4182
400e
ENDCHAR
STARTCHAR ch-394
ENCODING 394
SWIDTH 1000 0
DWIDTH 16 0
BBX 16 16 0 -2
BITMAP
0000
7e7e
4242
7e7e
4242
7e7e
4002
4102
4102
4912
4912
4912
4912
4ff2
4002
400e
ENDCHAR
STARTCHAR ch-395
ENCODING 395
SWIDTH 1000 0
DWIDTH 16 0
BBX 16 16 0 -2
BITMAP
0000
7e7e
4242
7e7e
4242
7e7e
4002
4ff2
4242
4242
5ffa
4242
4242
4642
4c42
400e
ENDCHAR
STARTCHAR ch-399
ENCODING 399
SWIDTH 1000 0
DWIDTH 16 0
BBX 16 16 0 -2
BITMAP
0000
7e7e
4242
7e7e
4242
7e7e
4002
4ff2
4102
4102
47e2
4102
4102
5ffa
4002
400e
ENDCHAR
STARTCHAR ch-401
ENCODING 401
SWIDTH 1000 0
DWIDTH 16 0
BBX 16 16 0 -2
BITMAP
0000
7e7e
4242
7e7e
4242
7e7e
4102
4102
4ff2
4102
4382
4342
4522
4912
4102
400e
ENDCHAR
STARTCHAR ch-403
ENCODING 403
SWIDTH 1000 0
DWIDTH 16 0
BBX 16 16 0 -2
BITMAP
0000
7e7e
4242
7e7e
4242
7e7e
4002
47e2
4422
4422
47e2
4422
4422
47e2
4002
400e
ENDCHAR
STARTCHAR ch-404
ENCODING 404
SWIDTH 1000 0
DWIDTH 16 0
BBX 16 16 0 -2
BITMAP
0000
7e7e
4242
7e7e
4242
7e7e
4102
4102
5ff2
4442
4442
4282
4102
4282
4c62
400e
ENDCHAR
STARTCHAR ch-406
ENCODING 406
SWIDTH 1000 0
DWIDTH 16 0
BBX 16 16 0 -2
BITMAP
0000
7e7e
4242
7e7e
4242
7e7e
4002
4102
4112
5d32
45a2
4542
4922
511a
4302
400e
ENDCHAR
STARTCHAR ch-408
ENCODING 408
SWIDTH 1000 0
DWIDTH 16 0
BBX 16 16 0 -2
BITMAP
0000
7e7e
4242
7e7e
4242
7e7e
4002
4ff2
4912
4ff2
4912
4ff2
4102
4102
4102
410e
ENDCHAR
STARTCHAR ch-409
ENCODING 409
SWIDTH 1000 0
DWIDTH 16 0
BBX 16 16 0 -2
BITMAP
0000
7e7e
4242
7e7e
4242
7e7e
4102
4102
5ffa
4102
4ff2
4912
4912
4932
4102
410e
ENDCHAR
STARTCHAR ch-416
ENCODING 416
SWIDTH 1000 0
DWIDTH 16 0
BBX 16 16 0 -2
BITMAP
0000
7e7e
4242
7e7e
4242
7e7e
4002
4ff2
4102
4102
47e2
4102
4142
4122
4ff2
400e
ENDCHAR
STARTCHAR ch-418
ENCODING 418
SWIDTH 1000 0
DWIDTH 16 0
BBX 16 16 0 -2
BITMAP
0000
7e7e
4242
7e7e
4242
7e7e
4422
4242
4ff2
4102
4102
5ffa
4242
4662
4c32
400e
ENDCHAR
STARTCHAR ch-419
ENCODING 419
SWIDTH 1000 0
DWIDTH 16 0
BBX 16 16 0 -2
BITMAP
0000
7e7e
4242
7e7e
4242
7e7e
4202
47e2
4c42
4382
4662
581a
47e2
4422
47e2
400e
ENDCHAR
STARTCHAR ch-420
ENCODING 420
SWIDTH 1000 0
DWIDTH 16 0
BBX 16 16 0 -2
BITMAP
0000
7e7e
4242
7e7e
4242
7e7e
4182
4242
4422
5bda
4002
47e2
4422
4422
47e2
400e
ENDCHAR
STARTCHAR ch-421
ENCODING 421
SWIDTH 1000 0
DWIDTH 16 0
BBX 16 16 0 -2
BITMAP
0000
7e7e
4242
7e7e
4242
7e7e
4022
4492
4ffa
5882
68a2
4842
48ea
4b3a
4812
400e
ENDCHAR
STARTCHAR ch-423
ENCODING 423
SWIDTH 1000 0
DWIDTH 16 0
BBX 16 16 0 -2
BITMAP
0000
7e7e
4242
7e7e
4242
7e7e
4002
4242
4ff2
4242
4242
5ffa
4242
4662
4c32
4006
ENDCHAR
STARTCHAR ch-424
ENCODING 424
SWIDTH 1000 0
DWIDTH 16 0
BBX 16 16 0 -2
BITMAP
0000
7e7e
4242
7e7e
4242
7e7e
4102
4fe2
4102
5ff2
4102
4fe2
4102
5ff2
4002
400e
ENDCHAR
STARTCHAR ch-429
ENCODING 429
SWIDTH 1000 0
DWIDTH 16 0
BBX 16 16 0 -2
BITMAP
0000
7e7e
4242
7e7e
4242
7e7e
4002
47e2
4422
47e2
4102
4ff2
4812
4812
4ff2
400e
ENDCHAR
STARTCHAR ch-434
ENCODING 434
SWIDTH 1000 0
DWIDTH 16 0
BBX 16 16 0 -2
BITMAP
0000
7e7e
4242
7e7e
4242
7e7e
4422
4242
4ff2
4812
4812
4ff2
4242
464a
5c3a
4006
ENDCHAR
STARTCHAR ch-441
ENCODING 441
SWIDTH 1000 0
DWIDTH 16 0
BBX 16 16 0 -2
BITMAP
7e7e
4242
7e7e
4242
7e7e
4202
5ffa
4522
4ff2
552a
47e2
4522
47e2
4112
41f2
4006
ENDCHAR
STARTCHAR ch-443
ENCODING 443
SWIDTH 1000 0
DWIDTH 16 0
BBX 16 16 0 -2
BITMAP
0000
7e7e
4242
7e7e
4242
7e7e
4402
47c2
4c42
5982
4e72
4812
4e72
4812
4ff2
400e
ENDCHAR
STARTCHAR ch-444
ENCODING 444
SWIDTH 1000 0
DWIDTH 16 0
BBX 16 16 0 -2
BITMAP
0000
7e7e
4242
7e7e
4242
7e7e
4822
7f72
48da
4e0e
4a62
4a32
5a02
5272
761a
4006
ENDCHAR
STARTCHAR ch-446
ENCODING 446
SWIDTH 1000 0
DWIDTH 16 0
BBX 16 16 0 -2
BITMAP
7e7e
4242
7e7e
4242
7e7e
4022
4092
5ffa
4082
4eca
4a52
4e62
4022
466a
58ba
4316
ENDCHAR
STARTCHAR ch-451
ENCODING 451
SWIDTH 1000 0
DWIDTH 16 0
BBX 16 16 0 -2
BITMAP
7e7e
4242
7e7e
4242
7ffe
4422
47e2
4422
47e2
4422
47e2
4112
5ffa
4242
4c32
4006
ENDCHAR
STARTCHAR ch-455
ENCODING 455
SWIDTH 1000 0
DWIDTH 16 0
BBX 16 16 0 -2
BITMAP
0000
7e7e
4242
7e7e
4242
7e7e
4102
4ff2
4422
5ffa
4002
47e2
4422
47e2
4422
47ee
ENDCHAR
STARTCHAR ch-458
ENCODING 458
SWIDTH 1000 0
DWIDTH 16 0
BBX 16 16 0 -2
BITMAP
7e7e
4242
7e7e
4242
7e7e
4002
4c32
45e2
4042
5bfa
4842
41f2
4512
4d12
59f2
4006
ENDCHAR
STARTCHAR ch-460
ENCODING 460
SWIDTH 1000 0
DWIDTH 16 0
BBX 16 16 0 -2
BITMAP
7e7e
4242
7e7e
4242
7e7e
4102
5ffa
4102
4ff2
4912
4ff2
4912
4ff2
4542
4d62
5936
ENDCHAR
STARTCHAR ch-461
ENCODING 461
SWIDTH 1000 0
DWIDTH 16 0
BBX 16 16 0 -2
BITMAP
7e7e
4242
7e7e
4242
7e7e
4112
4ff2
4122
5ffa
4082
43e2
4622
5be2
4222
43e2
400e
ENDCHAR
STARTCHAR ch-468
ENCODING 468
SWIDTH 1000 0
DWIDTH 16 0
BBX 16 16 0 -2
BITMAP
7e7e
4242
7e7e
4242
7e7e
4102
4ff2
4102
5ffa
4422
4fd2
4002
4ff2
4a92
5ffa
4006
ENDCHAR
STARTCHAR ch-469
ENCODING 469
SWIDTH 1000 0
DWIDTH 16 0
BBX 16 16 0 -2
BITMAP
0000
7e7e
4242
7e7e
4242
7e7e
5102
4a42
5f7a
44ca
5522
5f22
4472
4c52
58da
4006
ENDCHAR
STARTCHAR ch-470
ENCODING 470
SWIDTH 1000 0
DWIDTH 16 0
BBX 16 16 0 -2
BITMAP
7e7e
4242
7e7e
4242
7e7e
4002
47f2
4482
47e2
4482
47e2
4482
47fa
400a
4aaa
5016
ENDCHAR
STARTCHAR ch-472
ENCODING 472
SWIDTH 1000 0
DWIDTH 16 0
BBX 16 16 0 -2
BITMAP
0000
7e7e
4242
7e7e
4242
7e7e
4002
5f12
40fa
5f12
5152
5f52
4a12
4712
5c32
4006
ENDCHAR
STARTCHAR ch-476
ENCODING 476
SWIDTH 1000 0
DWIDTH 16 0
BBX 16 16 0 -2
BITMAP
7e7e
4242
7e7e
4242
7e7e
4422
4842
5292
4c62
494a
5f7a
4002
524a
5e7a
4442
5846
ENDCHAR
STARTCHAR ch-481
ENCODING 481
SWIDTH 1000 0
DWIDTH 16 0
BBX 16 16 0 -2
BITMAP
7e7e
4242
7e7e
4242
7e7e
4002
4e72
4a52
4ff2
4522
47e2
4522
47e2
4102
5ffa
4106
ENDCHAR
STARTCHAR ch-482
ENCODING 482
SWIDTH 1000 0
DWIDTH 16 0
BBX 16 16 0 -2
BITMAP
7e7e
4242
7e7e
4242
7e7e
4022
5efa
5252
5252
5efa
5022
5e22
6afa
4a22
4e22
400e
ENDCHAR
STARTCHAR ch-485
ENCODING 485
SWIDTH 1000 0
DWIDTH 16 0
BBX 16 16 0 -2
BITMAP
7e7e
4242
7e7e
4242
7e7e
4042
51f2
4842
43fa
58a2
4bfa
4842
4bfa
4842
57fa
4006
ENDCHAR
ENDFONT
